<svg xmlns="http://www.w3.org/2000/svg" xmlns:xlink="http://www.w3.org/1999/xlink" style="margin:auto;background:#17212b;display:block;z-index:1;position:relative" width="1080" height="720" preserveAspectRatio="xMidYMid" viewBox="0 0 1080 720">
            

    <g fill="#ffffff08" transform="scale(12) translate(-45,10)">
        <animateTransform attributeName="transform" type="rotate" keyTimes="0;1" values="0 50 50;360 50 50" dur="310s" begin="0" repeatCount="indefinite" additive="sum"></animateTransform>
        <path d="M92.48,35.8024,76.492,12.6568,51.023.0255,50.97,0,20.5723,8.8309H20.397L4.521,27.6959l-.0591.069.002.1516L0,58.81v.1734L16.0337,82.1l25.469,12.6311.24.0256,30.0234-8.8308h.1773L87.82,67.06l.0591-.0689-.002-.2422,4.5506-30.1355m-8.2916,3.875L75.88,16.5022l15.555,19.381Zm-70.76,17.3372L5.0427,34.2606,25.1109,29.157Zm.2441.7343.1614-.1493.3212-.3351L25.8638,29.432,38.815,53.8857Zm25.5047-3.7194-.6282,25.3686-24.11-20.781ZM26.627,28.9877l31.5808,2.8884L39.62,53.4428ZM59.32,30.7736,47.1243,9.4315l26.5442,5.021ZM74.4246,14.9665l8.7877,25.3784L60.0745,31.2856Zm-7.882,48.3784L40.282,54.0493l18.68-21.5666ZM58.3536,31.002,26.9419,28.1233l19.1705-18.54ZM40.0005,54.89l26.2173,9.2781L39.461,80.2942ZM66.7928,64.95l-1.7034,20.98-24.833-5.021ZM59.9171,32.268,83.234,41.4516,67.57,62.9667ZM76.045,13.533l9.7505,14L75.2476,14.1474Zm-.8662-.5868-.6853.571L61.2164,5.9779Zm-3.18.1714L46.9254,8.4332l3.9931-7.46ZM49.7569,1.1283l-3.8337,7.24-21.8914.3386ZM45.0706,9.25,26.1289,27.568,21.2161,9.6088Zm-24.65,1.0888,4.897,17.8038L5.4641,33.2151ZM5.2359,28.1469l12.02-14.3521L4.7691,32.4709Zm-.6165,7.6889L12.72,58.6447.92,58.3791ZM1.2051,59.3537l11.6526.2617L15.573,80.1169Zm12.6746.9155L37.7085,80.7961l-21.0625.7148Zm4.2038,22.09L38.53,81.6587l2.4573,12.0188Zm23.91,11.6289L39.522,81.8142l24.083,4.8515Zm29.5152-8.7366-4.72.6282,17.39-15.5886Zm-5.6057.0945,1.7819-20.7652,18.804,2.5855Zm2.19-21.6157L83.5606,42.4538l3.3968,23.87Zm19.41.063-3.0442-22.33,7.11-4.54Z"></path>
    </g>
    <g fill="#ffffff06" transform="scale(15)  translate(0,-50)">
        <animateTransform attributeName="transform" type="rotate" keyTimes="0;1" values="0 50 50;360 50 50" dur="320s" begin="-10s" repeatCount="indefinite" additive="sum"></animateTransform>
        <path d="M92.48,35.8024,76.492,12.6568,51.023.0255,50.97,0,20.5723,8.8309H20.397L4.521,27.6959l-.0591.069.002.1516L0,58.81v.1734L16.0337,82.1l25.469,12.6311.24.0256,30.0234-8.8308h.1773L87.82,67.06l.0591-.0689-.002-.2422,4.5506-30.1355m-8.2916,3.875L75.88,16.5022l15.555,19.381Zm-70.76,17.3372L5.0427,34.2606,25.1109,29.157Zm.2441.7343.1614-.1493.3212-.3351L25.8638,29.432,38.815,53.8857Zm25.5047-3.7194-.6282,25.3686-24.11-20.781ZM26.627,28.9877l31.5808,2.8884L39.62,53.4428ZM59.32,30.7736,47.1243,9.4315l26.5442,5.021ZM74.4246,14.9665l8.7877,25.3784L60.0745,31.2856Zm-7.882,48.3784L40.282,54.0493l18.68-21.5666ZM58.3536,31.002,26.9419,28.1233l19.1705-18.54ZM40.0005,54.89l26.2173,9.2781L39.461,80.2942ZM66.7928,64.95l-1.7034,20.98-24.833-5.021ZM59.9171,32.268,83.234,41.4516,67.57,62.9667ZM76.045,13.533l9.7505,14L75.2476,14.1474Zm-.8662-.5868-.6853.571L61.2164,5.9779Zm-3.18.1714L46.9254,8.4332l3.9931-7.46ZM49.7569,1.1283l-3.8337,7.24-21.8914.3386ZM45.0706,9.25,26.1289,27.568,21.2161,9.6088Zm-24.65,1.0888,4.897,17.8038L5.4641,33.2151ZM5.2359,28.1469l12.02-14.3521L4.7691,32.4709Zm-.6165,7.6889L12.72,58.6447.92,58.3791ZM1.2051,59.3537l11.6526.2617L15.573,80.1169Zm12.6746.9155L37.7085,80.7961l-21.0625.7148Zm4.2038,22.09L38.53,81.6587l2.4573,12.0188Zm23.91,11.6289L39.522,81.8142l24.083,4.8515Zm29.5152-8.7366-4.72.6282,17.39-15.5886Zm-5.6057.0945,1.7819-20.7652,18.804,2.5855Zm2.19-21.6157L83.5606,42.4538l3.3968,23.87Zm19.41.063-3.0442-22.33,7.11-4.54Z"></path>
    </g>
    <g fill="#ffffff04" transform="scale(20)  translate(-50,-50)">
        <animateTransform attributeName="transform" type="rotate" keyTimes="0;1" values="0 50 50;360 50 50" dur="300s" begin="-10s" repeatCount="indefinite" additive="sum"></animateTransform>
        <path d="M92.48,35.8024,76.492,12.6568,51.023.0255,50.97,0,20.5723,8.8309H20.397L4.521,27.6959l-.0591.069.002.1516L0,58.81v.1734L16.0337,82.1l25.469,12.6311.24.0256,30.0234-8.8308h.1773L87.82,67.06l.0591-.0689-.002-.2422,4.5506-30.1355m-8.2916,3.875L75.88,16.5022l15.555,19.381Zm-70.76,17.3372L5.0427,34.2606,25.1109,29.157Zm.2441.7343.1614-.1493.3212-.3351L25.8638,29.432,38.815,53.8857Zm25.5047-3.7194-.6282,25.3686-24.11-20.781ZM26.627,28.9877l31.5808,2.8884L39.62,53.4428ZM59.32,30.7736,47.1243,9.4315l26.5442,5.021ZM74.4246,14.9665l8.7877,25.3784L60.0745,31.2856Zm-7.882,48.3784L40.282,54.0493l18.68-21.5666ZM58.3536,31.002,26.9419,28.1233l19.1705-18.54ZM40.0005,54.89l26.2173,9.2781L39.461,80.2942ZM66.7928,64.95l-1.7034,20.98-24.833-5.021ZM59.9171,32.268,83.234,41.4516,67.57,62.9667ZM76.045,13.533l9.7505,14L75.2476,14.1474Zm-.8662-.5868-.6853.571L61.2164,5.9779Zm-3.18.1714L46.9254,8.4332l3.9931-7.46ZM49.7569,1.1283l-3.8337,7.24-21.8914.3386ZM45.0706,9.25,26.1289,27.568,21.2161,9.6088Zm-24.65,1.0888,4.897,17.8038L5.4641,33.2151ZM5.2359,28.1469l12.02-14.3521L4.7691,32.4709Zm-.6165,7.6889L12.72,58.6447.92,58.3791ZM1.2051,59.3537l11.6526.2617L15.573,80.1169Zm12.6746.9155L37.7085,80.7961l-21.0625.7148Zm4.2038,22.09L38.53,81.6587l2.4573,12.0188Zm23.91,11.6289L39.522,81.8142l24.083,4.8515Zm29.5152-8.7366-4.72.6282,17.39-15.5886Zm-5.6057.0945,1.7819-20.7652,18.804,2.5855Zm2.19-21.6157L83.5606,42.4538l3.3968,23.87Zm19.41.063-3.0442-22.33,7.11-4.54Z"></path>
   </g>
</svg>